<?xml version="1.0" standalone="no"?>
<!DOCTYPE svg PUBLIC "-//W3C//DTD SVG 20010904//EN"
 "http://www.w3.org/TR/2001/REC-SVG-20010904/DTD/svg10.dtd">
<svg version="1.0" xmlns="http://www.w3.org/2000/svg"
 width="1280.000000pt" height="720.000000pt" viewBox="0 0 1280.000000 720.000000"
 preserveAspectRatio="xMidYMid meet">

<g transform="translate(0.000000,720.000000) scale(0.100000,-0.100000)"
fill="#000000" stroke="none">
<path d="M0 3600 l0 -3600 6400 0 6400 0 0 3600 0 3600 -6400 0 -6400 0 0
-3600z m6683 2315 c395 -60 727 -212 1030 -475 470 -406 728 -1049 667 -1661
-43 -424 -192 -782 -459 -1101 -689 -823 -1926 -943 -2765 -268 -80 65 -242
227 -309 310 -166 207 -304 488 -371 759 -45 180 -51 236 -51 476 1 254 15
361 75 562 119 401 374 769 705 1015 272 203 547 320 885 378 139 24 448 26
593 5z"/>
<path d="M6210 5855 c-8 -2 -55 -9 -105 -15 -183 -25 -429 -107 -602 -200
-626 -337 -1012 -978 -1013 -1682 -1 -653 324 -1250 875 -1610 478 -312 1089
-389 1640 -207 692 229 1193 832 1296 1559 20 144 15 415 -11 565 -144 838
-814 1482 -1650 1585 -75 9 -390 13 -430 5z m505 -98 c193 -37 314 -77 490
-162 206 -101 369 -219 520 -376 631 -659 682 -1676 120 -2394 -566 -722
-1591 -914 -2379 -445 -742 442 -1073 1331 -802 2155 217 657 818 1148 1512
1235 103 13 445 4 539 -13z"/>
<path d="M6290 5635 c0 -74 17 -89 22 -19 l3 46 47 -41 c25 -23 51 -41 57 -41
7 0 11 23 11 60 0 48 -3 60 -16 60 -13 0 -15 -8 -12 -40 2 -22 0 -40 -4 -40
-5 0 -28 18 -52 40 -24 22 -46 40 -50 40 -3 0 -6 -29 -6 -65z"/>
<path d="M6132 5681 c-23 -4 -47 -12 -52 -17 -5 -5 -6 -31 -2 -59 l8 -50 64 3
c35 1 67 7 71 13 9 15 -1 90 -14 107 -10 13 -11 13 -75 3z m66 -59 c2 -29 -1
-42 -10 -42 -7 0 -30 -3 -50 -6 l-38 -7 0 46 c0 44 1 46 33 50 58 7 62 5 65
-41z"/>
<path d="M6586 5630 c-4 -34 -6 -63 -4 -65 9 -7 118 -12 118 -5 0 9 -35 20
-67 20 -17 0 -23 6 -23 21 0 18 4 20 30 14 17 -4 30 -2 30 3 0 5 -13 12 -30
16 -18 3 -30 12 -30 21 0 13 9 15 50 9 34 -5 50 -3 50 5 0 6 -10 11 -22 11
-13 0 -39 3 -59 6 l-36 6 -7 -62z"/>
<path d="M6766 5617 c-9 -30 -16 -60 -16 -66 0 -15 20 -14 20 2 1 6 6 25 13
41 l13 29 34 -56 c19 -32 37 -57 41 -57 8 0 39 86 39 107 0 28 -17 11 -29 -28
l-13 -41 -35 53 c-20 30 -39 58 -43 62 -5 5 -15 -16 -24 -46z"/>
<path d="M5980 5641 c0 -32 26 -111 36 -111 9 0 10 9 4 33 -4 17 -11 44 -14
60 -6 25 -26 39 -26 18z"/>
<path d="M5862 5619 c-34 -11 -60 -24 -57 -29 3 -6 16 -5 31 0 26 10 33 0 50
-65 3 -14 11 -25 16 -25 10 0 8 22 -7 83 -6 20 -2 26 19 31 14 3 26 11 26 16
0 13 -4 12 -78 -11z"/>
<path d="M6973 5583 c-3 -10 -12 -33 -19 -52 -17 -41 -17 -51 -3 -51 6 0 13 9
16 21 5 16 11 19 34 14 33 -7 40 10 9 20 -19 6 -26 25 -14 37 3 4 21 0 39 -8
38 -16 55 -18 55 -6 0 6 -88 42 -104 42 -4 0 -9 -8 -13 -17z"/>
<path d="M5740 5576 c0 -2 7 -20 15 -39 8 -20 15 -38 15 -41 0 -2 -28 5 -62
15 -34 11 -65 18 -69 17 -4 -2 5 -30 20 -63 17 -37 30 -55 34 -48 4 7 1 26 -8
44 -9 17 -14 33 -11 36 3 3 31 -4 63 -15 32 -12 60 -18 64 -14 9 9 -38 112
-51 112 -5 0 -10 -2 -10 -4z"/>
<path d="M7110 5490 c-11 -21 -20 -45 -20 -53 0 -10 97 -67 115 -67 5 0 55 95
55 104 0 9 -98 56 -114 56 -9 0 -25 -18 -36 -40z m83 3 c18 -10 34 -19 36 -20
2 -2 -4 -21 -14 -42 l-18 -40 -41 21 c-22 11 -42 22 -44 23 -6 5 32 75 41 75
5 0 23 -8 40 -17z"/>
<path d="M5523 5467 c-24 -11 -43 -25 -43 -30 0 -6 42 -87 56 -105 1 -2 24 9
51 24 59 34 58 33 51 40 -3 3 -24 -4 -47 -15 -49 -26 -51 -26 -51 -2 0 11 9
23 20 26 11 3 20 11 20 16 0 13 -24 11 -37 -2 -12 -12 -33 -4 -33 11 0 5 8 11
18 14 9 4 28 15 42 26 34 26 7 25 -47 -3z"/>
<path d="M7292 5388 c-31 -52 -33 -89 -2 -51 21 27 36 18 53 -32 8 -21 19 -41
25 -43 9 -3 10 3 2 23 -13 35 -13 37 8 31 12 -4 23 3 35 23 19 32 15 38 -53
79 l-36 21 -32 -51z m103 -30 c0 -20 -28 -20 -53 0 -15 12 -21 24 -16 35 6 16
8 16 38 -2 17 -11 31 -26 31 -33z"/>
<path d="M5424 5345 c3 -30 4 -55 1 -55 -3 0 -22 9 -42 20 -39 21 -63 25 -63
13 0 -11 119 -68 126 -61 10 10 -7 138 -19 138 -6 0 -7 -20 -3 -55z"/>
<path d="M7464 5298 c-61 -70 -59 -62 -17 -102 38 -36 72 -44 81 -17 3 9 -1
11 -14 7 -12 -3 -30 3 -48 17 l-29 24 23 31 c13 18 29 32 35 32 20 0 56 -46
49 -63 -8 -22 10 -22 27 -1 12 15 8 21 -31 55 -25 22 -48 39 -51 39 -3 0 -14
-10 -25 -22z"/>
<path d="M5218 5243 l-36 -38 37 -42 c20 -24 42 -43 49 -43 17 0 15 15 -3 30
-23 19 0 40 46 40 21 0 41 5 44 10 4 6 -7 10 -26 10 -27 0 -30 2 -19 15 10 13
10 19 -5 35 -26 29 -46 25 -87 -17z m67 0 c9 -25 -43 -67 -62 -51 -11 9 -9 16
13 40 32 33 39 34 49 11z"/>
<path d="M7587 5152 c-20 -21 -37 -41 -37 -44 0 -11 72 -78 83 -78 6 0 -4 15
-22 34 -21 22 -31 41 -28 50 9 22 23 20 41 -6 9 -12 19 -19 22 -15 4 4 -3 18
-16 32 -21 22 -21 25 -6 31 12 5 28 -4 52 -27 19 -18 34 -28 34 -21 0 13 -66
82 -78 82 -5 0 -25 -17 -45 -38z"/>
<path d="M5094 5115 c-20 -25 -33 -49 -28 -53 5 -4 26 -22 46 -41 l37 -34 27
33 c15 18 34 39 42 47 8 7 11 17 7 21 -3 4 -22 -10 -41 -31 -32 -35 -54 -41
-54 -15 0 6 7 20 17 30 9 10 13 21 10 24 -4 4 -15 -4 -26 -17 -16 -19 -22 -22
-32 -12 -10 11 -7 19 19 46 18 18 32 36 32 40 0 18 -22 3 -56 -38z"/>
<path d="M6370 5051 c-19 -10 -45 -30 -57 -43 -13 -13 -68 -125 -123 -249 -89
-198 -117 -249 -140 -249 -4 0 -65 46 -137 103 -371 291 -564 438 -572 435 -5
-2 -41 -43 -81 -93 -41 -49 -88 -108 -106 -130 l-33 -40 62 -71 c71 -81 379
-427 387 -434 3 -3 113 -126 245 -275 132 -148 242 -272 245 -275 3 -3 75 -84
160 -180 85 -96 163 -184 173 -195 19 -20 19 -20 45 11 15 17 117 132 227 255
110 123 366 410 569 639 203 228 391 439 418 468 35 36 47 56 41 65 -64 83
-208 257 -214 257 -4 0 -161 -120 -349 -266 -188 -146 -347 -267 -353 -269 -7
-3 -18 -1 -25 3 -17 11 -152 328 -152 357 0 65 49 105 129 105 54 0 62 7 34
32 -38 34 -116 51 -238 55 -103 3 -125 1 -155 -16z"/>
<path d="M7700 5021 c-25 -22 -42 -43 -37 -47 4 -4 21 5 37 21 34 33 45 30 30
-9 -19 -50 -14 -57 33 -50 l42 6 -32 -31 c-18 -17 -28 -33 -23 -36 13 -8 102
64 94 77 -3 5 -25 9 -48 8 -22 -1 -44 -1 -48 -1 -4 1 -1 21 6 45 21 69 10 72
-54 17z"/>
<path d="M4990 4986 c-24 -31 -40 -60 -36 -64 4 -4 16 4 26 18 l18 24 34 -25
c49 -38 58 -42 58 -27 0 7 -18 26 -40 41 -39 28 -39 29 -24 53 33 50 5 34 -36
-20z"/>
<path d="M4915 4880 c-3 -5 10 -17 29 -27 20 -9 36 -20 36 -23 0 -3 -27 -15
-61 -26 -33 -10 -60 -24 -58 -29 3 -15 97 -66 103 -56 3 5 -11 19 -32 31 -41
25 -45 21 52 55 46 17 48 19 30 32 -39 29 -93 53 -99 43z"/>
<path d="M7833 4844 c-24 -14 -43 -30 -43 -36 0 -16 51 -98 61 -98 14 0 11 7
-17 52 -21 32 -23 42 -12 49 20 13 24 11 38 -18 7 -16 15 -23 17 -16 2 7 0 21
-6 31 -10 19 -6 32 10 32 4 0 19 -18 32 -41 14 -22 28 -36 31 -31 8 13 -45
102 -59 102 -5 -1 -29 -12 -52 -26z"/>
<path d="M7923 4692 c-29 -15 -53 -30 -53 -34 0 -12 18 -10 51 8 17 8 32 14
34 12 1 -2 -7 -31 -18 -66 -11 -34 -18 -65 -15 -67 8 -9 119 46 113 55 -3 5
-21 2 -40 -7 -19 -9 -37 -14 -40 -11 -3 2 2 28 11 57 23 77 18 83 -43 53z"/>
<path d="M4810 4692 c0 -7 102 -62 115 -62 3 0 5 6 5 13 0 7 -24 23 -53 35
-57 24 -67 26 -67 14z"/>
<path d="M5052 4652 c-56 -101 -121 -300 -146 -447 -17 -106 -27 -287 -16
-283 5 2 100 86 211 188 111 102 215 197 232 211 l30 25 -137 167 c-76 92
-141 169 -145 172 -4 2 -17 -13 -29 -33z"/>
<path d="M7610 4525 c-74 -91 -136 -169 -138 -174 -1 -5 41 -48 95 -97 106
-95 196 -178 283 -258 102 -95 94 -98 87 39 -6 133 -33 280 -73 401 -29 86
-103 254 -113 254 -3 0 -67 -75 -141 -165z"/>
<path d="M8044 4519 c6 -35 5 -37 -27 -43 -18 -3 -42 -13 -53 -22 -18 -15 -17
-15 12 -10 18 3 43 8 58 12 22 5 27 2 37 -22 19 -48 22 -8 4 48 -22 66 -40 88
-31 37z"/>
<path d="M4767 4519 c-18 -10 -56 -82 -57 -105 0 -14 110 -48 120 -37 4 4 12
28 18 53 9 36 8 49 -4 67 -8 13 -18 23 -23 23 -5 0 -15 2 -23 5 -7 2 -21 0
-31 -6z m47 -25 c10 -4 16 -18 16 -38 0 -47 -12 -59 -49 -51 -39 8 -47 26 -31
65 12 30 31 37 64 24z"/>
<path d="M4692 4319 c2 -7 19 -16 37 -20 17 -4 34 -9 36 -11 3 -2 -18 -21 -45
-42 -28 -21 -50 -42 -50 -46 0 -5 14 -11 30 -14 17 -3 44 -9 60 -12 17 -3 30
-1 30 4 0 13 -25 22 -57 22 -33 0 -27 11 26 51 58 44 60 55 14 63 -21 3 -49 9
-62 13 -18 4 -22 2 -19 -8z"/>
<path d="M5145 4078 c-189 -167 -251 -227 -253 -247 -5 -36 15 -158 43 -267
26 -98 75 -234 86 -234 6 0 147 152 473 508 l158 173 -28 32 c-16 17 -31 34
-34 37 -3 3 -47 53 -98 113 -52 59 -94 107 -95 106 -1 0 -114 -100 -252 -221z"/>
<path d="M7325 4183 c-55 -64 -111 -128 -123 -144 l-24 -29 32 -38 c18 -20 54
-59 79 -87 26 -27 127 -138 225 -245 99 -107 204 -221 233 -254 35 -37 58 -55
64 -49 31 31 108 316 123 455 l6 57 -243 213 c-133 117 -249 218 -257 224 -12
10 -32 -8 -115 -103z"/>
<path d="M8100 4183 c-85 -13 -88 -14 -85 -31 2 -9 7 -34 10 -54 8 -53 26 -48
19 6 -6 39 -4 44 17 49 13 4 36 7 52 7 17 0 27 5 27 15 0 8 -3 14 -7 14 -5 -1
-19 -3 -33 -6z"/>
<path d="M4708 4099 c-32 -16 -58 -33 -58 -38 0 -12 111 -84 118 -77 3 4 0 12
-6 18 -7 7 -12 31 -12 54 0 34 4 44 20 49 22 7 28 25 8 25 -7 -1 -39 -14 -70
-31z m19 -66 c-6 -5 -47 19 -47 28 0 3 10 11 23 16 19 9 22 7 25 -14 2 -14 1
-27 -1 -30z"/>
<path d="M8030 3951 l0 -68 47 -6 c26 -3 52 -3 59 0 12 4 22 78 16 121 -3 20
-9 22 -63 22 l-59 0 0 -69z m100 -1 l0 -50 -40 0 -40 0 0 50 0 50 40 0 40 0 0
-50z"/>
<path d="M5530 3798 c-159 -177 -381 -419 -444 -485 l-40 -43 18 -37 c27 -59
140 -222 193 -281 l48 -54 215 268 c118 147 259 323 313 390 l98 124 -121 140
c-67 77 -125 140 -128 139 -4 0 -72 -73 -152 -161z"/>
<path d="M7020 3825 c-63 -75 -114 -141 -114 -149 1 -12 546 -699 599 -754
l22 -23 70 85 c38 47 95 129 126 181 57 94 57 96 40 119 -36 45 -616 676 -622
676 -3 0 -58 -61 -121 -135z"/>
<path d="M4760 3906 l0 -45 -50 -3 c-69 -4 -63 -23 8 -23 l57 0 3 58 c2 35 -1
57 -8 57 -5 0 -10 -20 -10 -44z"/>
<path d="M8026 3802 c-3 -5 -8 -32 -12 -61 -7 -58 1 -71 44 -71 15 0 22 6 22
19 0 11 3 26 6 35 3 9 2 16 -4 16 -5 0 -12 -9 -15 -20 -3 -11 -13 -20 -22 -20
-14 0 -16 7 -10 43 4 23 9 44 10 45 2 2 21 1 43 -3 l40 -6 -6 -42 c-3 -23 -9
-43 -13 -45 -15 -6 -10 -22 6 -22 14 0 18 10 30 82 5 30 2 39 -14 47 -23 13
-98 15 -105 3z"/>
<path d="M4772 3740 c2 -42 0 -50 -14 -50 -12 0 -18 8 -18 25 0 14 -4 25 -10
25 -5 0 -10 -13 -10 -30 0 -49 -28 -38 -36 15 -9 64 -26 57 -18 -7 4 -29 9
-56 13 -60 5 -5 110 7 116 14 7 8 -9 118 -17 118 -6 0 -8 -22 -6 -50z"/>
<path d="M7990 3611 c0 -6 12 -13 28 -17 15 -3 42 -10 59 -14 38 -10 55 6 21
19 -43 16 -108 23 -108 12z"/>
<path d="M4752 3592 c-30 -10 -54 -21 -54 -27 0 -5 17 -16 38 -24 22 -8 41
-16 43 -18 2 -1 -9 -21 -24 -43 -15 -22 -25 -43 -22 -47 9 -9 110 21 115 35 2
8 -7 8 -33 1 -47 -13 -54 -5 -26 25 27 29 22 42 -19 51 -40 9 -38 21 5 29 21
4 35 13 35 21 0 8 -1 15 -2 14 -2 -1 -27 -8 -56 -17z"/>
<path d="M6024 3433 c-49 -70 -105 -149 -125 -177 -216 -307 -371 -531 -375
-540 -9 -25 234 -158 383 -210 192 -66 284 -81 503 -81 148 0 217 5 284 18
186 38 415 132 558 228 l59 41 -24 31 c-13 18 -87 122 -164 232 -77 110 -165
236 -196 280 -31 44 -91 130 -134 192 -43 61 -82 112 -88 112 -5 -1 -72 -70
-149 -155 -76 -85 -141 -154 -145 -153 -3 1 -33 31 -66 68 -188 208 -218 241
-225 241 -4 0 -47 -57 -96 -127z"/>
<path d="M7969 3513 c-6 -16 -13 -43 -16 -60 -5 -28 -2 -34 18 -42 35 -12 45
-5 59 45 12 40 40 62 40 30 0 -25 -22 -76 -33 -76 -7 0 -7 -4 1 -12 17 -17 28
-2 44 55 11 41 10 49 -2 58 -30 19 -54 6 -66 -36 -6 -23 -18 -41 -27 -43 -20
-4 -20 0 -6 51 5 20 14 37 19 37 6 0 10 5 10 10 0 22 -31 8 -41 -17z"/>
<path d="M4810 3381 c-24 -10 -46 -23 -47 -28 -6 -17 45 -123 59 -123 22 1 98
38 98 49 0 18 -49 121 -57 120 -4 0 -28 -8 -53 -18z m72 -56 l17 -45 -40 -11
c-21 -7 -40 -10 -42 -8 -1 2 -10 21 -20 41 l-16 38 27 14 c44 24 56 19 74 -29z"/>
<path d="M8020 3338 c-1 -32 -15 -39 -53 -23 -20 8 -43 15 -52 15 -30 0 -14
-16 34 -34 47 -17 49 -19 40 -42 -11 -31 -11 -34 0 -34 4 0 18 26 30 59 24 66
25 71 11 71 -5 0 -10 -6 -10 -12z"/>
<path d="M7850 3222 c0 -7 102 -62 115 -62 3 0 5 4 5 10 0 10 -91 60 -110 60
-5 0 -10 -4 -10 -8z"/>
<path d="M4898 3184 c-53 -27 -63 -47 -20 -38 24 5 30 1 46 -32 17 -37 17 -38
-5 -54 -40 -31 -4 -29 49 2 49 28 74 59 35 43 -35 -14 -46 -10 -67 24 l-20 34
22 15 c21 14 30 32 15 32 -5 -1 -29 -12 -55 -26z"/>
<path d="M7790 3103 c-26 -41 -28 -49 -16 -61 8 -8 19 -11 26 -7 9 6 9 9 -1
16 -10 6 -9 15 6 43 11 20 21 36 24 36 10 0 72 -43 69 -49 -2 -3 -10 -19 -18
-34 -9 -20 -19 -27 -32 -24 -11 3 -18 0 -18 -9 0 -8 9 -14 20 -14 20 0 70 63
70 90 0 15 -68 60 -90 60 -6 0 -24 -21 -40 -47z"/>
<path d="M7691 2963 c-37 -44 -38 -54 -10 -79 21 -19 21 -19 60 26 31 35 39
41 44 28 8 -21 -23 -65 -50 -72 -16 -4 -17 -8 -6 -18 10 -11 20 -5 52 32 21
25 39 48 39 52 0 4 -12 15 -26 25 -26 16 -26 16 -59 -23 -23 -27 -37 -36 -44
-29 -14 14 28 77 47 70 6 -2 12 2 12 10 0 26 -28 16 -59 -22z"/>
<path d="M5142 2888 c-17 -17 -14 -31 5 -24 17 7 63 -29 63 -49 0 -11 -45 -55
-56 -55 -13 0 -49 55 -46 72 2 13 -1 16 -12 12 -26 -10 -18 -38 23 -78 l39
-38 41 37 c23 21 41 40 41 44 0 11 -53 72 -71 81 -10 6 -20 5 -27 -2z"/>
<path d="M7507 2762 c-40 -41 -45 -65 -21 -100 23 -34 67 -29 112 13 l37 34
-45 46 -46 45 -37 -38z m73 -77 c-25 -27 -59 -32 -78 -13 -19 19 -14 40 15 70
l27 28 30 -29 30 -30 -24 -26z"/>
<path d="M5252 2730 c-40 -38 -52 -60 -34 -60 14 0 84 78 81 89 -3 7 -23 -7
-47 -29z"/>
<path d="M5324 2685 c-16 -24 -15 -26 7 -45 13 -10 27 -19 32 -20 13 0 7 19
-10 28 -10 6 -14 16 -10 27 6 15 12 13 47 -15 l40 -31 -27 -34 -27 -34 -38 31
c-21 16 -36 34 -32 39 3 5 -2 9 -10 9 -30 0 -16 -29 30 -65 26 -19 50 -35 54
-35 9 0 70 76 70 88 0 10 -89 82 -101 82 -5 0 -16 -11 -25 -25z"/>
<path d="M7390 2658 c1 -20 76 -103 83 -91 3 5 -11 30 -31 56 -38 47 -52 57
-52 35z"/>
<path d="M5490 2592 c0 -5 18 -19 41 -31 58 -33 47 -54 -21 -36 -24 7 -24 6 5
-18 26 -22 28 -26 13 -32 -11 -4 -29 2 -48 15 -17 12 -36 20 -42 18 -12 -4 73
-68 90 -68 6 0 24 23 41 50 l31 50 -47 30 c-48 31 -63 36 -63 22z"/>
<path d="M7286 2592 c-9 -15 6 -142 17 -142 6 0 8 23 4 60 -3 33 -4 60 -2 60
2 0 23 -11 46 -25 48 -27 59 -30 59 -15 0 8 -57 43 -112 68 -3 2 -9 -1 -12 -6z"/>
<path d="M7180 2525 c0 -15 52 -105 60 -105 16 0 12 14 -16 64 -22 39 -44 60
-44 41z"/>
<path d="M5655 2455 c-27 -45 -39 -53 -50 -35 -7 12 -35 14 -35 3 0 -11 101
-63 120 -63 11 1 11 4 -4 15 -10 8 -23 16 -28 17 -5 2 3 24 17 50 34 61 15 73
-20 13z"/>
<path d="M7061 2467 c-53 -26 -58 -36 -33 -67 l18 -22 41 20 c40 21 53 20 53
-3 0 -14 -66 -39 -80 -30 -5 3 -10 -1 -10 -9 0 -20 21 -20 67 -1 46 19 54 32
40 62 -13 28 -17 28 -66 3 -33 -17 -41 -17 -51 -5 -9 11 -4 18 29 34 22 12 47
18 55 15 9 -3 16 -2 16 4 0 8 -25 24 -33 21 -1 0 -22 -10 -46 -22z"/>
<path d="M5747 2463 c-5 -9 11 -134 18 -141 8 -8 45 15 90 55 39 34 39 35 12
29 -38 -9 -97 13 -97 35 0 19 -16 34 -23 22z m72 -79 c2 -2 -4 -13 -15 -25
-17 -19 -19 -19 -25 -2 -14 35 -10 45 14 37 12 -3 24 -8 26 -10z"/>
<path d="M6930 2413 c0 -19 35 -113 42 -113 4 0 8 6 8 13 0 24 -32 107 -41
107 -5 0 -9 -3 -9 -7z"/>
<path d="M5934 2375 c16 -24 15 -25 -2 -25 -24 0 -47 -47 -32 -65 15 -18 99
-40 109 -29 13 14 40 102 33 108 -11 12 -22 5 -22 -14 0 -33 -36 -24 -59 15
-11 19 -25 35 -32 35 -7 0 -5 -9 5 -25z m35 -56 c20 -7 31 -18 31 -30 0 -22
-6 -23 -49 -8 -29 10 -39 27 -24 42 8 9 4 9 42 -4z"/>
<path d="M6780 2376 c-43 -12 -45 -14 -43 -47 1 -19 7 -48 13 -63 11 -30 7
-30 104 -5 l38 10 -7 46 c-12 81 -16 83 -105 59z m79 -47 c7 -23 11 -43 8 -45
-2 -2 -24 -7 -49 -10 -41 -6 -46 -4 -51 17 -14 53 -3 65 74 78 3 1 11 -17 18
-40z"/>
<path d="M6135 2338 c-2 -7 -6 -30 -10 -52 -6 -34 -9 -38 -31 -33 -26 5 -43
-8 -21 -16 8 -3 40 -8 72 -12 42 -6 56 -5 51 4 -4 6 -18 11 -32 11 -19 0 -24
4 -21 18 14 49 17 92 7 92 -6 0 -12 -6 -15 -12z"/>
<path d="M6652 2305 c6 -49 8 -49 -59 -3 -54 36 -66 36 -59 -2 3 -16 9 -43 12
-60 9 -49 24 -34 17 16 l-6 47 60 -41 c33 -23 63 -39 65 -37 3 3 0 32 -5 65
-11 70 -32 83 -25 15z"/>
<path d="M6247 2313 c-16 -35 -2 -53 40 -53 41 0 69 -13 60 -27 -7 -11 -87 -4
-87 8 0 5 -4 9 -10 9 -14 0 -12 -30 3 -34 6 -3 31 -7 55 -10 39 -6 43 -4 54
20 11 23 10 28 -7 40 -10 8 -33 14 -50 14 -36 0 -46 6 -39 25 6 16 75 9 86 -9
5 -8 11 -7 20 2 19 19 -1 30 -61 34 -47 3 -55 0 -64 -19z"/>
</g>
</svg>
